{
    "asset" : {
        "generator" : "Khronos glTF Blender I/O v1.3.48",
        "version" : "2.0"
    },
    "scene" : 0,
    "scenes" : [
        {
            "name" : "Scene",
            "nodes" : [
                0,
                1,
                2,
                3,
                4,
                5,
                6
            ]
        }
    ],
    "nodes" : [
        {
            "name" : "Light",
            "rotation" : [
                0.16907575726509094,
                0.7558803558349609,
                -0.27217137813568115,
                0.570947527885437
            ],
            "translation" : [
                14.338713645935059,
                5.903861999511719,
                -1.0054539442062378
            ]
        },
        {
            "name" : "Camera",
            "rotation" : [
                0.483536034822464,
                0.33687159419059753,
                -0.20870360732078552,
                0.7804827094078064
            ],
            "translation" : [
                17.621360778808594,
                4.958309173583984,
                6.925790786743164
            ]
        },
        {
            "mesh" : 0,
            "name" : "object_1",
            "rotation" : [
                0.7071068286895752,
                0,
                0,
                0.7071067094802856
            ],
            "translation" : [
                -67.19520568847656,
                0,
                0
            ]
        },
        {
            "mesh" : 1,
            "name" : "object_2",
            "rotation" : [
                0.7071068286895752,
                0,
                0,
                0.7071067094802856
            ],
            "translation" : [
                -67.19520568847656,
                0,
                0
            ]
        },
        {
            "mesh" : 2,
            "name" : "object_3",
            "rotation" : [
                0.7071068286895752,
                0,
                0,
                0.7071067094802856
            ],
            "translation" : [
                -67.19520568847656,
                0,
                0
            ]
        },
        {
            "mesh" : 3,
            "name" : "object_4",
            "rotation" : [
                0.7071068286895752,
                0,
                0,
                0.7071067094802856
            ],
            "translation" : [
                -67.19520568847656,
                0,
                0
            ]
        },
        {
            "mesh" : 4,
            "name" : "object_5",
            "rotation" : [
                0.7071068286895752,
                0,
                0,
                0.7071067094802856
            ],
            "translation" : [
                -67.19520568847656,
                0,
                0
            ]
        }
    ],
    "materials" : [
        {
            "doubleSided" : true,
            "emissiveFactor" : [
                0,
                0,
                0
            ],
            "name" : "21___Default",
            "pbrMetallicRoughness" : {
                "baseColorFactor" : [
                    0.9490000009536743,
                    0.9490000009536743,
                    0.9490000009536743,
                    1
                ],
                "metallicFactor" : 0,
                "roughnessFactor" : 0.7418010830879211
            }
        },
        {
            "doubleSided" : true,
            "emissiveFactor" : [
                0,
                0,
                0
            ],
            "name" : "Material__955460",
            "pbrMetallicRoughness" : {
                "baseColorFactor" : [
                    0,
                    0,
                    0,
                    1
                ],
                "metallicFactor" : 0,
                "roughnessFactor" : 0.6926818490028381
            }
        },
        {
            "doubleSided" : true,
            "emissiveFactor" : [
                0,
                0,
                0
            ],
            "name" : "22___Default",
            "pbrMetallicRoughness" : {
                "baseColorFactor" : [
                    0,
                    0,
                    0,
                    1
                ],
                "metallicFactor" : 0,
                "roughnessFactor" : 1
            }
        },
        {
            "doubleSided" : true,
            "emissiveFactor" : [
                0,
                0,
                0
            ],
            "name" : "23___Default",
            "pbrMetallicRoughness" : {
                "baseColorFactor" : [
                    0.015699999406933784,
                    0.015699999406933784,
                    0.015699999406933784,
                    1
                ],
                "metallicFactor" : 0,
                "roughnessFactor" : 0.6666666865348816
            }
        },
        {
            "doubleSided" : true,
            "emissiveFactor" : [
                0,
                0,
                0
            ],
            "name" : "21___Default2",
            "pbrMetallicRoughness" : {
                "baseColorFactor" : [
                    0.07450000196695328,
                    0.07450000196695328,
                    0.07450000196695328,
                    1
                ],
                "metallicFactor" : 0,
                "roughnessFactor" : 0.7418010830879211
            }
        }
    ],
    "meshes" : [
        {
            "name" : "object_1",
            "primitives" : [
                {
                    "attributes" : {
                        "POSITION" : 0,
                        "NORMAL" : 1,
                        "TEXCOORD_0" : 2
                    },
                    "indices" : 3,
                    "material" : 0
                }
            ]
        },
        {
            "name" : "object_2",
            "primitives" : [
                {
                    "attributes" : {
                        "POSITION" : 4,
                        "NORMAL" : 5,
                        "TEXCOORD_0" : 6
                    },
                    "indices" : 7,
                    "material" : 1
                }
            ]
        },
        {
            "name" : "object_3",
            "primitives" : [
                {
                    "attributes" : {
                        "POSITION" : 8,
                        "NORMAL" : 9,
                        "TEXCOORD_0" : 10
                    },
                    "indices" : 11,
                    "material" : 2
                }
            ]
        },
        {
            "name" : "object_4",
            "primitives" : [
                {
                    "attributes" : {
                        "POSITION" : 12,
                        "NORMAL" : 13,
                        "TEXCOORD_0" : 14
                    },
                    "indices" : 15,
                    "material" : 3
                }
            ]
        },
        {
            "name" : "object_5",
            "primitives" : [
                {
                    "attributes" : {
                        "POSITION" : 16,
                        "NORMAL" : 17,
                        "TEXCOORD_0" : 18
                    },
                    "indices" : 19,
                    "material" : 4
                }
            ]
        }
    ],
    "accessors" : [
        {
            "bufferView" : 0,
            "componentType" : 5126,
            "count" : 2774,
            "max" : [
                107.48397064208984,
                6.803975582122803,
                -9.634035110473633
            ],
            "min" : [
                67.74405670166016,
                0.18947617709636688,
                -33.57321548461914
            ],
            "type" : "VEC3"
        },
        {
            "bufferView" : 1,
            "componentType" : 5126,
            "count" : 2774,
            "type" : "VEC3"
        },
        {
            "bufferView" : 2,
            "componentType" : 5126,
            "count" : 2774,
            "type" : "VEC2"
        },
        {
            "bufferView" : 3,
            "componentType" : 5123,
            "count" : 5859,
            "type" : "SCALAR"
        },
        {
            "bufferView" : 4,
            "componentType" : 5126,
            "count" : 17239,
            "max" : [
                107.35977935791016,
                6.257136821746826,
                -9.634350776672363
            ],
            "min" : [
                67.8685531616211,
                -0.00573761435225606,
                -32.15158462524414
            ],
            "type" : "VEC3"
        },
        {
            "bufferView" : 5,
            "componentType" : 5126,
            "count" : 17239,
            "type" : "VEC3"
        },
        {
            "bufferView" : 6,
            "componentType" : 5126,
            "count" : 17239,
            "type" : "VEC2"
        },
        {
            "bufferView" : 7,
            "componentType" : 5123,
            "count" : 30213,
            "type" : "SCALAR"
        },
        {
            "bufferView" : 8,
            "componentType" : 5126,
            "count" : 4072,
            "max" : [
                91.70671844482422,
                3.0095551013946533,
                -9.732386589050293
            ],
            "min" : [
                83.18883514404297,
                1.76229727268219,
                -9.787348747253418
            ],
            "type" : "VEC3"
        },
        {
            "bufferView" : 9,
            "componentType" : 5126,
            "count" : 4072,
            "type" : "VEC3"
        },
        {
            "bufferView" : 10,
            "componentType" : 5126,
            "count" : 4072,
            "type" : "VEC2"
        },
        {
            "bufferView" : 11,
            "componentType" : 5123,
            "count" : 5958,
            "type" : "SCALAR"
        },
        {
            "bufferView" : 12,
            "componentType" : 5126,
            "count" : 24,
            "max" : [
                95.02362823486328,
                3.57485032081604,
                -9.732812881469727
            ],
            "min" : [
                80.13800811767578,
                1.1530553102493286,
                -10.145370483398438
            ],
            "type" : "VEC3"
        },
        {
            "bufferView" : 13,
            "componentType" : 5126,
            "count" : 24,
            "type" : "VEC3"
        },
        {
            "bufferView" : 14,
            "componentType" : 5126,
            "count" : 24,
            "type" : "VEC2"
        },
        {
            "bufferView" : 15,
            "componentType" : 5123,
            "count" : 36,
            "type" : "SCALAR"
        },
        {
            "bufferView" : 16,
            "componentType" : 5126,
            "count" : 699,
            "max" : [
                107.10940551757812,
                6.103625774383545,
                -9.6167573928833
            ],
            "min" : [
                68.1143569946289,
                3.2201731204986572,
                -10.580175399780273
            ],
            "type" : "VEC3"
        },
        {
            "bufferView" : 17,
            "componentType" : 5126,
            "count" : 699,
            "type" : "VEC3"
        },
        {
            "bufferView" : 18,
            "componentType" : 5126,
            "count" : 699,
            "type" : "VEC2"
        },
        {
            "bufferView" : 19,
            "componentType" : 5123,
            "count" : 1290,
            "type" : "SCALAR"
        }
    ],
    "bufferViews" : [
        {
            "buffer" : 0,
            "byteLength" : 33288,
            "byteOffset" : 0
        },
        {
            "buffer" : 0,
            "byteLength" : 33288,
            "byteOffset" : 33288
        },
        {
            "buffer" : 0,
            "byteLength" : 22192,
            "byteOffset" : 66576
        },
        {
            "buffer" : 0,
            "byteLength" : 11718,
            "byteOffset" : 88768
        },
        {
            "buffer" : 0,
            "byteLength" : 206868,
            "byteOffset" : 100488
        },
        {
            "buffer" : 0,
            "byteLength" : 206868,
            "byteOffset" : 307356
        },
        {
            "buffer" : 0,
            "byteLength" : 137912,
            "byteOffset" : 514224
        },
        {
            "buffer" : 0,
            "byteLength" : 60426,
            "byteOffset" : 652136
        },
        {
            "buffer" : 0,
            "byteLength" : 48864,
            "byteOffset" : 712564
        },
        {
            "buffer" : 0,
            "byteLength" : 48864,
            "byteOffset" : 761428
        },
        {
            "buffer" : 0,
            "byteLength" : 32576,
            "byteOffset" : 810292
        },
        {
            "buffer" : 0,
            "byteLength" : 11916,
            "byteOffset" : 842868
        },
        {
            "buffer" : 0,
            "byteLength" : 288,
            "byteOffset" : 854784
        },
        {
            "buffer" : 0,
            "byteLength" : 288,
            "byteOffset" : 855072
        },
        {
            "buffer" : 0,
            "byteLength" : 192,
            "byteOffset" : 855360
        },
        {
            "buffer" : 0,
            "byteLength" : 72,
            "byteOffset" : 855552
        },
        {
            "buffer" : 0,
            "byteLength" : 8388,
            "byteOffset" : 855624
        },
        {
            "buffer" : 0,
            "byteLength" : 8388,
            "byteOffset" : 864012
        },
        {
            "buffer" : 0,
            "byteLength" : 5592,
            "byteOffset" : 872400
        },
        {
            "buffer" : 0,
            "byteLength" : 2580,
            "byteOffset" : 877992
        }
    ],
    "buffers" : [
        {
            "byteLength" : 880572,
            "uri" : "data:application/octet-stream;base64,"
        }
    ]
}
