{
    "asset" : {
        "generator" : "Khronos glTF Blender I/O v1.3.48",
        "version" : "2.0"
    },
    "scene" : 0,
    "scenes" : [
        {
            "name" : "Scene",
            "nodes" : [
                0,
                1,
                2,
                3,
                4
            ]
        }
    ],
    "nodes" : [
        {
            "mesh" : 0,
            "name" : "object_1",
            "translation" : [
                20.470916748046875,
                4.118094444274902,
                -11.123140335083008
            ]
        },
        {
            "mesh" : 1,
            "name" : "object_2",
            "translation" : [
                20.081016540527344,
                4.350283622741699,
                -3.186844825744629
            ]
        },
        {
            "mesh" : 2,
            "name" : "object_3",
            "translation" : [
                19.466140747070312,
                2.892439365386963,
                -0.7252368927001953
            ]
        },
        {
            "mesh" : 3,
            "name" : "object_4",
            "translation" : [
                20.38562774658203,
                2.938232421875,
                -0.9144554138183594
            ]
        },
        {
            "mesh" : 4,
            "name" : "object_5",
            "translation" : [
                24.216941833496094,
                4.446715354919434,
                -0.9563894271850586
            ]
        }
    ],
    "materials" : [
        {
            "doubleSided" : true,
            "emissiveFactor" : [
                0,
                0,
                0
            ],
            "name" : "21___Default",
            "pbrMetallicRoughness" : {
                "baseColorFactor" : [
                    0.9490000009536743,
                    0.9490000009536743,
                    0.9490000009536743,
                    1
                ],
                "metallicFactor" : 0,
                "roughnessFactor" : 0.7418010830879211
            }
        },
        {
            "doubleSided" : true,
            "emissiveFactor" : [
                0,
                0,
                0
            ],
            "name" : "Material__955460",
            "pbrMetallicRoughness" : {
                "baseColorFactor" : [
                    0,
                    0,
                    0,
                    1
                ],
                "metallicFactor" : 0,
                "roughnessFactor" : 0.6926818490028381
            }
        },
        {
            "doubleSided" : true,
            "emissiveFactor" : [
                0,
                0,
                0
            ],
            "name" : "22___Default",
            "pbrMetallicRoughness" : {
                "baseColorFactor" : [
                    0,
                    0,
                    0,
                    1
                ],
                "metallicFactor" : 0,
                "roughnessFactor" : 1
            }
        },
        {
            "doubleSided" : true,
            "emissiveFactor" : [
                0,
                0,
                0
            ],
            "name" : "23___Default",
            "pbrMetallicRoughness" : {
                "baseColorFactor" : [
                    0.015699999406933784,
                    0.015699999406933784,
                    0.015699999406933784,
                    1
                ],
                "metallicFactor" : 0,
                "roughnessFactor" : 0.6666666865348816
            }
        },
        {
            "doubleSided" : true,
            "emissiveFactor" : [
                0,
                0,
                0
            ],
            "name" : "21___Default2",
            "pbrMetallicRoughness" : {
                "baseColorFactor" : [
                    0.07450000196695328,
                    0.07450000196695328,
                    0.07450000196695328,
                    1
                ],
                "metallicFactor" : 0,
                "roughnessFactor" : 0.7418010830879211
            }
        }
    ],
    "meshes" : [
        {
            "name" : "object_1",
            "primitives" : [
                {
                    "attributes" : {
                        "POSITION" : 0,
                        "NORMAL" : 1,
                        "TEXCOORD_0" : 2
                    },
                    "indices" : 3,
                    "material" : 0
                }
            ]
        },
        {
            "name" : "object_2",
            "primitives" : [
                {
                    "attributes" : {
                        "POSITION" : 4,
                        "NORMAL" : 5,
                        "TEXCOORD_0" : 6
                    },
                    "indices" : 7,
                    "material" : 1
                }
            ]
        },
        {
            "name" : "object_3",
            "primitives" : [
                {
                    "attributes" : {
                        "POSITION" : 8,
                        "NORMAL" : 9,
                        "TEXCOORD_0" : 10
                    },
                    "indices" : 11,
                    "material" : 2
                }
            ]
        },
        {
            "name" : "object_4",
            "primitives" : [
                {
                    "attributes" : {
                        "POSITION" : 12,
                        "NORMAL" : 13,
                        "TEXCOORD_0" : 14
                    },
                    "indices" : 15,
                    "material" : 3
                }
            ]
        },
        {
            "name" : "object_5",
            "primitives" : [
                {
                    "attributes" : {
                        "POSITION" : 16,
                        "NORMAL" : 17,
                        "TEXCOORD_0" : 18
                    },
                    "indices" : 19,
                    "material" : 4
                }
            ]
        }
    ],
    "accessors" : [
        {
            "bufferView" : 0,
            "componentType" : 5126,
            "count" : 2774,
            "max" : [
                19.817848205566406,
                3.260159969329834,
                10.513742446899414
            ],
            "min" : [
                -19.92206573486328,
                -3.354339361190796,
                -13.425437927246094
            ],
            "type" : "VEC3"
        },
        {
            "bufferView" : 1,
            "componentType" : 5126,
            "count" : 2774,
            "type" : "VEC3"
        },
        {
            "bufferView" : 2,
            "componentType" : 5126,
            "count" : 2774,
            "type" : "VEC2"
        },
        {
            "bufferView" : 3,
            "componentType" : 5123,
            "count" : 5859,
            "type" : "SCALAR"
        },
        {
            "bufferView" : 4,
            "componentType" : 5126,
            "count" : 17239,
            "max" : [
                20.08355712890625,
                2.4811322689056396,
                2.5771312713623047
            ],
            "min" : [
                -19.407669067382812,
                -3.7817420959472656,
                -19.940101623535156
            ],
            "type" : "VEC3"
        },
        {
            "bufferView" : 5,
            "componentType" : 5126,
            "count" : 17239,
            "type" : "VEC3"
        },
        {
            "bufferView" : 6,
            "componentType" : 5126,
            "count" : 17239,
            "type" : "VEC2"
        },
        {
            "bufferView" : 7,
            "componentType" : 5123,
            "count" : 30213,
            "type" : "SCALAR"
        },
        {
            "bufferView" : 8,
            "componentType" : 5126,
            "count" : 4072,
            "max" : [
                5.045372009277344,
                0.691394567489624,
                0.017487525939941406
            ],
            "min" : [
                -3.4725112915039062,
                -0.5558632612228394,
                -0.037474632263183594
            ],
            "type" : "VEC3"
        },
        {
            "bufferView" : 9,
            "componentType" : 5126,
            "count" : 4072,
            "type" : "VEC3"
        },
        {
            "bufferView" : 10,
            "componentType" : 5126,
            "count" : 4072,
            "type" : "VEC2"
        },
        {
            "bufferView" : 11,
            "componentType" : 5123,
            "count" : 5958,
            "type" : "SCALAR"
        },
        {
            "bufferView" : 12,
            "componentType" : 5126,
            "count" : 24,
            "max" : [
                7.4427947998046875,
                1.2108969688415527,
                0.20627975463867188
            ],
            "min" : [
                -7.4428253173828125,
                -1.2108980417251587,
                -0.20627784729003906
            ],
            "type" : "VEC3"
        },
        {
            "bufferView" : 13,
            "componentType" : 5126,
            "count" : 24,
            "type" : "VEC3"
        },
        {
            "bufferView" : 14,
            "componentType" : 5126,
            "count" : 24,
            "type" : "VEC2"
        },
        {
            "bufferView" : 15,
            "componentType" : 5123,
            "count" : 36,
            "type" : "SCALAR"
        },
        {
            "bufferView" : 16,
            "componentType" : 5126,
            "count" : 699,
            "max" : [
                15.697257995605469,
                2.231189250946045,
                0.3642692565917969
            ],
            "min" : [
                -23.29779052734375,
                -0.6522634029388428,
                -0.5991487503051758
            ],
            "type" : "VEC3"
        },
        {
            "bufferView" : 17,
            "componentType" : 5126,
            "count" : 699,
            "type" : "VEC3"
        },
        {
            "bufferView" : 18,
            "componentType" : 5126,
            "count" : 699,
            "type" : "VEC2"
        },
        {
            "bufferView" : 19,
            "componentType" : 5123,
            "count" : 1290,
            "type" : "SCALAR"
        }
    ],
    "bufferViews" : [
        {
            "buffer" : 0,
            "byteLength" : 33288,
            "byteOffset" : 0
        },
        {
            "buffer" : 0,
            "byteLength" : 33288,
            "byteOffset" : 33288
        },
        {
            "buffer" : 0,
            "byteLength" : 22192,
            "byteOffset" : 66576
        },
        {
            "buffer" : 0,
            "byteLength" : 11718,
            "byteOffset" : 88768
        },
        {
            "buffer" : 0,
            "byteLength" : 206868,
            "byteOffset" : 100488
        },
        {
            "buffer" : 0,
            "byteLength" : 206868,
            "byteOffset" : 307356
        },
        {
            "buffer" : 0,
            "byteLength" : 137912,
            "byteOffset" : 514224
        },
        {
            "buffer" : 0,
            "byteLength" : 60426,
            "byteOffset" : 652136
        },
        {
            "buffer" : 0,
            "byteLength" : 48864,
            "byteOffset" : 712564
        },
        {
            "buffer" : 0,
            "byteLength" : 48864,
            "byteOffset" : 761428
        },
        {
            "buffer" : 0,
            "byteLength" : 32576,
            "byteOffset" : 810292
        },
        {
            "buffer" : 0,
            "byteLength" : 11916,
            "byteOffset" : 842868
        },
        {
            "buffer" : 0,
            "byteLength" : 288,
            "byteOffset" : 854784
        },
        {
            "buffer" : 0,
            "byteLength" : 288,
            "byteOffset" : 855072
        },
        {
            "buffer" : 0,
            "byteLength" : 192,
            "byteOffset" : 855360
        },
        {
            "buffer" : 0,
            "byteLength" : 72,
            "byteOffset" : 855552
        },
        {
            "buffer" : 0,
            "byteLength" : 8388,
            "byteOffset" : 855624
        },
        {
            "buffer" : 0,
            "byteLength" : 8388,
            "byteOffset" : 864012
        },
        {
            "buffer" : 0,
            "byteLength" : 5592,
            "byteOffset" : 872400
        },
        {
            "buffer" : 0,
            "byteLength" : 2580,
            "byteOffset" : 877992
        }
    ],
    "buffers" : [
        {
            "byteLength" : 880572,
            "uri" : "DVD-Player.bin"
        }
    ]
}
